<?xml version="1.0" encoding="UTF-8"?>
<!DOCTYPE svg PUBLIC "-//W3C//DTD SVG 1.1//EN" "http://www.w3.org/Graphics/SVG/1.1/DTD/svg11.dtd">

<svg xmlns="http://www.w3.org/2000/svg" xml:space="preserve" width="700mm" height="350mm" version="1.1" style="shape-rendering:geometricPrecision; text-rendering:geometricPrecision; image-rendering:optimizeQuality; fill-rule:evenodd; clip-rule:evenodd"
viewBox="0 0 70000 35000"
 xmlns:xlink="http://www.w3.org/1999/xlink"
 xmlns:xodm="http://www.corel.com/coreldraw/odm/2003">
 <defs>
  <style type="text/css">
   <![CDATA[
    .fil1 {fill:#1F1C21}
    .fil0 {fill:#1F1C21;fill-rule:nonzero}
   ]]>
  </style>
 </defs>
 <g id="Слой_x0020_1">
  <metadata id="CorelCorpID_0Corel-Layer"/>
  <path class="fil0" d="M18964.26 25820.67c0,708.37 -73.4,1416.74 -216.31,2125.12 -142.93,704.54 -363.1,1378.45 -656.67,2017.9 -293.57,639.45 -660.52,1232.96 -1104.74,1784.34 -440.36,551.38 -961.83,1030.01 -1564.42,1435.89 -606.45,405.88 -1286.29,723.69 -2043.38,953.43 -757.11,229.74 -1599.18,340.79 -2518.51,340.79 -919.33,0 -1761.41,-111.05 -2522.37,-340.79 -764.83,-229.74 -1444.67,-547.55 -2043.39,-953.43 -598.72,-405.88 -1124.06,-884.51 -1568.27,-1435.89 -444.22,-551.38 -815.04,-1144.89 -1108.61,-1784.34 -293.57,-639.45 -513.74,-1313.36 -656.67,-2017.9 -142.92,-708.38 -216.31,-1416.75 -216.31,-2125.12 0,-1278.9 185.41,-2450.59 548.51,-3511.24 366.96,-1064.47 896.16,-1975.79 1591.45,-2737.76 695.3,-761.98 1545.1,-1355.49 2545.55,-1780.51 1004.31,-421.2 2147.68,-631.79 3430.11,-631.79 1274.7,0 2414.21,210.59 3422.38,631.79 1008.18,425.02 1857.98,1018.53 2545.55,1780.51 691.43,761.97 1220.63,1673.29 1587.59,2737.76 363.09,1060.65 548.51,2232.34 548.51,3511.24zm-2221.07 0c0,-980.24 -131.34,-1883.89 -394.01,-2710.97 -262.66,-827.07 -648.94,-1535.44 -1151.09,-2128.95 -498.3,-597.33 -1116.34,-1060.64 -1850.26,-1393.77 -730.05,-333.13 -1560.54,-497.77 -2487.6,-497.77 -934.79,0 -1769.13,164.64 -2499.19,497.77 -733.92,333.13 -1351.97,796.44 -1854.12,1393.77 -498.29,593.51 -884.57,1301.88 -1147.23,2128.95 -262.68,827.08 -394,1730.73 -394,2710.97 0,999.38 119.74,1914.52 359.23,2741.59 243.36,827.08 610.32,1535.45 1100.89,2125.12 486.7,589.68 1100.87,1049.16 1838.66,1374.63 733.92,325.47 1599.18,486.29 2595.76,486.29 988.86,0 1850.25,-160.82 2591.9,-486.29 737.78,-325.47 1351.95,-784.95 1838.66,-1374.63 486.7,-589.67 849.8,-1298.04 1093.15,-2125.12 239.49,-827.07 359.25,-1742.21 359.25,-2741.59zm4843.86 -8247.77l2221.09 0 0 8033.34 8111.75 -8033.34 3101.78 0 -6925.89 6654.88 7119.03 9836.82 -2854.57 0 -5859.78 -8312.86 -2692.32 2569.29 0 5743.57 -2221.09 0 0 -16491.7zm15458.69 0l12144.46 0 0 1929.84 -9923.37 0 0 5092.63 9154.69 0 0 1929.84 -9154.69 0 0 5609.55 10081.74 0 0 1929.84 -12302.83 0 0 -16491.7zm15458.69 0l2221.09 0 0 13340.4 42.49 0 8467.12 -13340.4 2568.73 0 0 16491.7 -2228.81 0 0 -13416.97 -46.35 0 -8455.54 13416.97 -2568.73 0 0 -16491.7z"/>
  <polygon class="fil1" points="18380.49,19879.02 15413.73,12805.85 58566.49,12774.17 40506.22,2709.12 2486.25,14189.73 40508.53,337.48 65836.36,14475.7 18252.96,14471.06 "/>
  <polygon class="fil1" points="58993.13,17119.4 57444.64,22779.7 57444.25,15609.15 64494.23,15619.59 "/>
 </g>
</svg>
