<?xml version="1.0" encoding="UTF-8"?>
<!DOCTYPE svg PUBLIC "-//W3C//DTD SVG 1.1//EN" "http://www.w3.org/Graphics/SVG/1.1/DTD/svg11.dtd">

<svg xmlns="http://www.w3.org/2000/svg" xml:space="preserve" width="1650mm" height="370mm" version="1.1" style="shape-rendering:geometricPrecision; text-rendering:geometricPrecision; image-rendering:optimizeQuality; fill-rule:evenodd; clip-rule:evenodd"
viewBox="0 0 165000 37000"
 xmlns:xlink="http://www.w3.org/1999/xlink"
 xmlns:xodm="http://www.corel.com/coreldraw/odm/2003">
 <defs>
  <style type="text/css">
   <![CDATA[
    .str0 {stroke:#1F1C21;stroke-width:20;stroke-miterlimit:22.9256}
    .fil1 {fill:#1F1C21}
    .fil0 {fill:#1F1C21;fill-rule:nonzero}
   ]]>
  </style>
 </defs>
 <g id="Слой_x0020_1">
  <metadata id="CorelCorpID_0Corel-Layer"/>
  <path class="fil0 str0" d="M71083.56 16388.49l1837.95 0 2724.73 7633.25 -1750.33 0 -491.67 -1573.79 -2844.53 0 -534.57 1573.79 -1696.71 0 2755.13 -7633.25zm-94.75 4740.88l1964.88 0 -958.3 -3021.76 -21.46 0 -985.12 3021.76zm5751.63 -4740.88l5181.29 0 0 1315.04 -3572.19 0 0 6318.21 -1609.1 0 0 -7633.25zm6202.17 0l5651.5 0 0 1315.04 -4106.77 0 0 1692.54 3777.8 0 0 1318.58 -3777.8 0 0 1926.48 4290.92 0 0 1380.61 -5835.65 0 0 -7633.25zm7024.6 0l1612.67 0 0 2903.01 3023.31 0 0 -2903.01 1607.31 0 0 7633.25 -1607.31 0 0 -3411.65 -3023.31 0 0 3411.65 -1612.67 0 0 -7633.25zm7128.3 0l6307.66 0 0 1315.04 -2352.86 0 0 6318.21 -1607.31 0 0 -6318.21 -2347.49 0 0 -1315.04zm12162.97 2507.79c-21.44,-72.66 -46.48,-155.96 -78.66,-251.66 -30.4,-93.93 -73.3,-191.41 -128.73,-287.11 -53.63,-97.48 -121.58,-193.18 -203.81,-285.34 -82.25,-93.93 -184.16,-177.23 -305.73,-249.89 -123.37,-72.67 -269.98,-131.15 -439.83,-177.23 -171.64,-44.31 -371.87,-67.35 -602.51,-67.35 -98.33,0 -212.76,12.41 -346.85,37.22 -132.3,23.04 -268.18,69.12 -407.64,136.46 -139.45,67.35 -277.12,163.05 -414.78,283.57 -135.89,120.52 -257.46,280.02 -362.95,474.97 -107.28,194.96 -193.09,432.44 -259.24,708.92 -66.16,276.48 -100.12,606.12 -100.12,987.16 0,411.17 44.7,779.81 130.51,1105.91 87.61,324.33 212.76,600.81 377.24,825.89 164.49,223.31 362.95,396.99 595.37,515.73 232.43,118.75 495.25,179 788.46,179 337.9,0 613.25,-51.39 827.79,-155.96 212.75,-102.79 382.6,-230.39 509.54,-379.27 128.74,-148.87 223.49,-304.83 286.07,-466.11 62.57,-163.05 110.84,-304.83 146.61,-427.12l1596.57 0c-85.81,478.52 -230.63,893.23 -434.45,1244.15 -202.03,350.91 -448.76,643.34 -738.4,875.51 -289.63,232.17 -615.03,404.08 -976.18,519.28 -361.15,113.42 -747.34,170.14 -1154.98,170.14 -572.12,0 -1079.88,-93.93 -1521.48,-281.8 -441.61,-189.63 -813.5,-459.02 -1115.64,-808.16 -302.16,-349.14 -532.79,-770.95 -688.34,-1263.64 -157.34,-494.47 -236.01,-1045.65 -236.01,-1653.55 0,-471.43 44.7,-896.77 135.89,-1277.82 91.18,-381.04 216.33,-719.55 379.03,-1015.52 162.7,-295.97 354,-551.18 573.91,-767.4 219.91,-216.22 459.49,-395.22 720.52,-535.23 259.24,-140.01 532.79,-244.58 818.85,-311.92 287.85,-67.35 577.49,-101.02 870.7,-101.02 418.37,0 790.24,42.53 1115.64,129.37 323.6,86.85 609.67,202.05 852.82,347.37 244.94,147.1 454.12,311.93 625.76,499.79 173.42,186.09 314.67,379.27 425.52,577.76 109.06,200.27 191.3,398.77 244.93,597.27 55.43,200.26 89.4,382.81 101.91,547.63l-1607.31 0zm2147.26 -2507.79l6307.66 0 0 1315.04 -2352.86 0 0 6318.21 -1607.31 0 0 -6318.21 -2347.49 0 0 -1315.04zm7312.45 0l3776.01 0c314.67,0 591.79,30.13 831.36,88.62 239.58,58.48 445.19,138.24 620.41,239.26 175.2,101.02 321.81,216.22 439.81,347.37 119.79,131.15 212.76,269.38 282.49,412.94 69.72,143.55 119.78,290.65 150.18,439.53 28.61,148.87 44.7,290.65 44.7,425.35 0,193.18 -17.88,366.86 -53.64,521.05 -33.97,154.19 -89.39,294.2 -164.49,421.8 -75.08,125.84 -173.42,239.26 -293.2,342.06 -119.8,102.79 -264.61,194.95 -432.68,278.24 259.24,95.71 466.64,216.22 623.97,358.01 157.34,141.78 277.13,294.2 361.15,459.02 84.04,164.82 139.46,334.96 168.07,508.65 28.6,175.45 41.12,343.82 41.12,506.87 0,370.41 -67.94,696.51 -203.82,981.85 -135.87,283.56 -328.97,521.05 -575.7,712.46 -248.51,193.18 -548.88,338.51 -904.66,439.53 -354.01,101.02 -747.34,150.64 -1180.01,150.64l-3531.07 0 0 -7633.25zm1544.73 6314.67l2007.79 0c177.01,0 341.49,-21.27 491.67,-62.03 150.18,-42.54 280.7,-104.57 389.76,-189.64 110.85,-85.07 196.67,-193.18 257.46,-322.55 60.79,-129.38 91.18,-283.57 91.18,-459.03 0,-221.53 -37.55,-398.76 -110.84,-531.68 -73.31,-134.7 -169.86,-237.49 -289.65,-310.15 -121.57,-72.67 -257.46,-120.52 -409.42,-141.79 -151.97,-23.04 -305.73,-33.67 -463.06,-33.67l-1964.89 0 0 2050.54zm0 -3307.09l1986.34 0c139.45,0 273.55,-15.95 402.27,-47.85 130.52,-30.13 244.94,-81.53 343.28,-152.42 100.12,-70.89 178.79,-161.28 239.58,-272.93 58.99,-109.89 87.6,-244.58 87.6,-400.54 0,-161.28 -26.82,-295.97 -80.45,-402.31 -53.64,-104.56 -128.73,-189.63 -223.49,-251.66 -92.97,-62.03 -203.82,-104.57 -328.97,-129.38 -125.15,-24.81 -259.24,-35.45 -398.7,-35.45l-2027.46 0 0 1692.54zm5794.53 809.93c0,-572.45 76.89,-1100.59 230.65,-1589.74 153.76,-487.38 382.6,-910.96 690.12,-1268.96 307.52,-358 693.7,-639.79 1158.55,-843.61 464.85,-203.81 1004.79,-306.6 1623.39,-306.6 568.55,0 1081.68,102.79 1539.37,306.6 457.71,203.82 845.68,485.61 1165.71,843.61 320.02,358 564.97,781.58 736.61,1268.96 169.85,489.15 255.67,1017.29 255.67,1589.74 0,567.14 -85.82,1095.28 -255.67,1586.2 -171.64,489.15 -416.59,912.73 -736.61,1270.73 -320.03,359.78 -708,639.8 -1165.71,845.38 -457.69,203.82 -970.82,304.84 -1539.37,304.84 -618.6,0 -1158.54,-101.02 -1623.39,-304.84 -464.85,-205.58 -851.03,-485.6 -1158.55,-845.38 -307.52,-358 -536.36,-781.58 -690.12,-1270.73 -153.76,-490.92 -230.65,-1019.06 -230.65,-1586.2zm3702.71 2626.53c328.97,0 622.19,-65.57 879.65,-196.72 259.24,-131.15 477.36,-313.69 657.94,-547.64 178.79,-233.94 316.46,-510.42 411.21,-831.2 94.76,-320.78 141.25,-669.92 141.25,-1050.97 0,-381.04 -46.49,-731.95 -141.25,-1052.74 -94.75,-319.01 -232.42,-595.48 -411.21,-829.43 -180.58,-233.94 -398.7,-416.48 -657.94,-547.63 -257.46,-132.93 -550.68,-198.5 -879.65,-198.5 -328.97,0 -622.17,65.57 -879.63,198.5 -259.24,131.15 -477.36,313.69 -657.94,547.63 -178.79,233.95 -318.24,510.42 -413,829.43 -96.55,320.79 -144.82,671.7 -144.82,1052.74 0,381.05 48.27,730.19 144.82,1050.97 94.76,320.78 234.21,597.26 413,831.2 180.58,233.95 398.7,416.49 657.94,547.64 257.46,131.15 550.66,196.72 879.63,196.72zm-60897.15 4189.69l1612.67 0 0 2903.01 3023.31 0 0 -2903.01 1607.31 0 0 7633.25 -1607.31 0 0 -3411.65 -3023.31 0 0 3411.65 -1612.67 0 0 -7633.25zm7877.43 0l5651.5 0 0 1315.04 -4106.78 0 0 1692.54 3777.81 0 0 1318.58 -3777.81 0 0 1926.48 4290.93 0 0 1380.61 -5835.65 0 0 -7633.25zm6405.99 6314.67l675.82 0c80.45,-214.45 160.91,-434.21 237.79,-659.29 78.67,-225.08 153.75,-469.66 223.48,-731.96 69.73,-264.07 134.09,-552.95 191.31,-868.42 57.21,-313.7 109.06,-669.92 153.75,-1066.92 46.49,-395.22 82.25,-838.29 110.86,-1329.21 26.81,-489.16 46.48,-1042.11 57.21,-1658.87l5243.86 0 0 6314.67 749.12 0 0 2954.4 -1394.55 0 0 -1635.82 -4854.1 0 0 1635.82 -1394.55 0 0 -2954.4zm5284.98 -4999.63l-2220.55 0c-3.58,138.24 -7.15,313.7 -12.52,528.14 -5.35,214.45 -16.09,455.48 -33.96,719.55 -17.88,265.85 -42.92,551.18 -76.88,857.79 -32.18,304.83 -76.88,620.3 -132.31,944.63 -57.21,322.56 -126.94,650.43 -212.75,980.08 -85.82,331.41 -189.52,653.97 -311.1,969.44l3000.07 0 0 -4999.63zm3368.39 -1315.04l3776.01 0c314.66,0 591.79,30.13 831.36,88.62 239.58,58.48 445.18,138.24 620.4,239.26 175.21,101.02 321.82,216.22 439.82,347.37 119.78,131.15 212.75,269.38 282.48,412.94 69.73,143.55 119.79,290.65 150.18,439.53 28.61,148.87 44.7,290.65 44.7,425.35 0,193.18 -17.88,366.86 -53.64,521.05 -33.96,154.19 -89.39,294.2 -164.48,421.8 -75.09,125.84 -173.43,239.26 -293.21,342.06 -119.8,102.79 -264.61,194.95 -432.67,278.24 259.24,95.71 466.64,216.22 623.97,358.01 157.33,141.78 277.13,294.2 361.15,459.02 84.03,164.82 139.46,334.96 168.06,508.65 28.6,175.45 41.12,343.82 41.12,506.87 0,370.41 -67.94,696.51 -203.81,981.85 -135.88,283.56 -328.97,521.05 -575.71,712.46 -248.5,193.18 -548.87,338.51 -904.66,439.53 -354.01,101.02 -747.34,150.64 -1180,150.64l-3531.07 0 0 -7633.25zm1544.72 6314.67l2007.8 0c177,0 341.48,-21.27 491.66,-62.03 150.18,-42.54 280.7,-104.57 389.76,-189.64 110.85,-85.07 196.67,-193.18 257.46,-322.55 60.79,-129.38 91.19,-283.57 91.19,-459.03 0,-221.53 -37.55,-398.76 -110.85,-531.68 -73.31,-134.7 -169.85,-237.49 -289.65,-310.15 -121.57,-72.67 -257.45,-120.52 -409.42,-141.79 -151.96,-23.04 -305.73,-33.67 -463.06,-33.67l-1964.89 0 0 2050.54zm0 -3307.09l1986.35 0c139.44,0 273.54,-15.95 402.27,-47.85 130.52,-30.13 244.93,-81.53 343.27,-152.42 100.13,-70.89 178.79,-161.28 239.58,-272.93 59,-109.89 87.61,-244.58 87.61,-400.54 0,-161.28 -26.83,-295.97 -80.46,-402.31 -53.63,-104.56 -128.73,-189.63 -223.49,-251.66 -92.97,-62.03 -203.81,-104.57 -328.96,-129.38 -125.16,-24.81 -259.25,-35.45 -398.7,-35.45l-2027.47 0 0 1692.54zm6071.67 -3007.58l1544.73 0 0 5198.13 21.45 0 3048.34 -5198.13 1628.77 0 0 7633.25 -1544.74 0 0 -5166.22 -21.45 0 -3042.98 5166.22 -1634.12 0 0 -7633.25zm13157.04 3058.97l309.31 0 2293.85 -3058.97 1834.37 0 -2776.58 3484.32 2776.58 4148.93 -1918.4 0 -2209.82 -3296.46 -309.31 0 0 3296.46 -1555.46 0 0 -3296.46 -323.6 0 -2231.29 3296.46 -1918.39 0 2817.7 -4148.93 -2755.13 -3484.32 1791.46 0 2295.65 3058.97 323.6 0 0 -3058.97 1555.46 0 0 3058.97zm5317.17 -3058.97l1544.74 0 0 5198.13 21.44 0 3048.34 -5198.13 1628.77 0 0 7633.25 -1544.73 0 0 -5166.22 -21.46 0 -3042.97 5166.22 -1634.13 0 0 -7633.25zm7746.91 0l2351.07 0 1351.64 5940.71 21.46 0 1351.64 -5940.71 2361.79 0 0 7633.25 -1482.16 0 0 -6382.01 -21.46 0 -1460.7 6382.01 -1566.18 0 -1403.49 -6382.01 -21.45 0 0 6382.01 -1482.16 0 0 -7633.25zm8658.72 3817.51c0,-572.45 76.88,-1100.59 230.64,-1589.74 153.77,-487.38 382.61,-910.96 690.12,-1268.96 307.53,-358 693.71,-639.79 1158.56,-843.61 464.85,-203.81 1004.79,-306.6 1623.39,-306.6 568.55,0 1081.68,102.79 1539.37,306.6 457.7,203.82 845.68,485.61 1165.71,843.61 320.02,358 564.97,781.58 736.6,1268.96 169.86,489.15 255.67,1017.29 255.67,1589.74 0,567.14 -85.81,1095.28 -255.67,1586.2 -171.63,489.15 -416.58,912.73 -736.6,1270.73 -320.03,359.78 -708.01,639.8 -1165.71,845.38 -457.69,203.82 -970.82,304.84 -1539.37,304.84 -618.6,0 -1158.54,-101.02 -1623.39,-304.84 -464.85,-205.58 -851.03,-485.6 -1158.56,-845.38 -307.51,-358 -536.35,-781.58 -690.12,-1270.73 -153.76,-490.92 -230.64,-1019.06 -230.64,-1586.2zm3702.71 2626.53c328.97,0 622.19,-65.57 879.64,-196.72 259.25,-131.15 477.37,-313.69 657.94,-547.64 178.79,-233.94 316.46,-510.42 411.22,-831.2 94.76,-320.78 141.24,-669.92 141.24,-1050.97 0,-381.04 -46.48,-731.95 -141.24,-1052.74 -94.76,-319.01 -232.43,-595.48 -411.22,-829.43 -180.57,-233.94 -398.69,-416.48 -657.94,-547.63 -257.45,-132.93 -550.67,-198.5 -879.64,-198.5 -328.97,0 -622.18,65.57 -879.63,198.5 -259.24,131.15 -477.37,313.69 -657.94,547.63 -178.79,233.95 -318.25,510.42 -413,829.43 -96.56,320.79 -144.83,671.7 -144.83,1052.74 0,381.05 48.27,730.19 144.83,1050.97 94.75,320.78 234.21,597.26 413,831.2 180.57,233.95 398.7,416.49 657.94,547.64 257.45,131.15 550.66,196.72 879.63,196.72zm9899.52 -3936.25c-21.45,-72.66 -46.49,-155.96 -78.67,-251.66 -30.39,-93.93 -73.3,-191.41 -128.72,-287.11 -53.64,-97.48 -121.58,-193.18 -203.82,-285.34 -82.25,-93.93 -184.16,-177.23 -305.73,-249.89 -123.36,-72.67 -269.97,-131.15 -439.82,-177.23 -171.64,-44.31 -371.88,-67.35 -602.52,-67.35 -98.33,0 -212.76,12.41 -346.84,37.22 -132.31,23.04 -268.18,69.12 -407.64,136.46 -139.46,67.35 -277.13,163.05 -414.79,283.57 -135.88,120.52 -257.45,280.02 -362.95,474.97 -107.27,194.96 -193.09,432.44 -259.24,708.92 -66.15,276.48 -100.12,606.12 -100.12,987.16 0,411.17 44.7,779.81 130.52,1105.91 87.6,324.33 212.75,600.81 377.24,825.89 164.48,223.31 362.95,396.99 595.36,515.73 232.43,118.75 495.25,179 788.46,179 337.91,0 613.25,-51.39 827.79,-155.96 212.76,-102.79 382.61,-230.39 509.55,-379.27 128.73,-148.87 223.49,-304.83 286.06,-466.11 62.58,-163.05 110.85,-304.83 146.61,-427.12l1596.58 0c-85.82,478.52 -230.63,893.23 -434.45,1244.15 -202.03,350.91 -448.77,643.34 -738.4,875.51 -289.64,232.17 -615.04,404.08 -976.19,519.28 -361.15,113.42 -747.34,170.14 -1154.97,170.14 -572.12,0 -1079.88,-93.93 -1521.49,-281.8 -441.61,-189.63 -813.49,-459.02 -1115.64,-808.16 -302.15,-349.14 -532.79,-770.95 -688.33,-1263.64 -157.34,-494.47 -236.01,-1045.65 -236.01,-1653.55 0,-471.43 44.7,-896.77 135.88,-1277.82 91.18,-381.04 216.33,-719.55 379.03,-1015.52 162.7,-295.97 354.01,-551.18 573.92,-767.4 219.91,-216.22 459.49,-395.22 720.51,-535.23 259.24,-140.01 532.79,-244.58 818.86,-311.92 287.85,-67.35 577.48,-101.02 870.69,-101.02 418.37,0 790.24,42.53 1115.64,129.37 323.61,86.85 609.67,202.05 852.82,347.37 244.95,147.1 454.12,311.93 625.76,499.79 173.42,186.09 314.68,379.27 425.52,577.76 109.06,200.27 191.3,398.77 244.94,597.27 55.42,200.26 89.4,382.81 101.91,547.63l-1607.31 0zm2147.26 -2507.79l6307.65 0 0 1315.04 -2352.85 0 0 6318.21 -1607.31 0 0 -6318.21 -2347.49 0 0 -1315.04zm7181.93 0l1544.73 0 0 5198.13 21.45 0 3048.34 -5198.13 1628.77 0 0 7633.25 -1544.73 0 0 -5166.22 -21.46 0 -3042.98 5166.22 -1634.12 0 0 -7633.25z"/>
  <g id="_105553156727936">
   <path class="fil0" d="M17993.67 26203.65c0,708.37 -73.4,1416.74 -216.31,2125.12 -142.93,704.54 -363.1,1378.45 -656.67,2017.9 -293.57,639.45 -660.52,1232.96 -1104.74,1784.34 -440.36,551.38 -961.83,1030.01 -1564.42,1435.89 -606.45,405.88 -1286.29,723.69 -2043.38,953.43 -757.11,229.74 -1599.18,340.79 -2518.51,340.79 -919.33,0 -1761.41,-111.05 -2522.37,-340.79 -764.83,-229.74 -1444.67,-547.55 -2043.39,-953.43 -598.72,-405.88 -1124.06,-884.51 -1568.27,-1435.89 -444.22,-551.38 -815.04,-1144.89 -1108.61,-1784.34 -293.57,-639.45 -513.74,-1313.36 -656.67,-2017.9 -142.92,-708.38 -216.31,-1416.75 -216.31,-2125.12 0,-1278.9 185.41,-2450.59 548.51,-3511.24 366.96,-1064.47 896.16,-1975.79 1591.45,-2737.76 695.3,-761.98 1545.1,-1355.49 2545.55,-1780.51 1004.31,-421.2 2147.68,-631.79 3430.11,-631.79 1274.7,0 2414.21,210.59 3422.38,631.79 1008.18,425.02 1857.98,1018.53 2545.55,1780.51 691.43,761.97 1220.63,1673.29 1587.59,2737.76 363.09,1060.65 548.51,2232.34 548.51,3511.24zm-2221.07 0c0,-980.24 -131.34,-1883.89 -394.01,-2710.97 -262.66,-827.07 -648.94,-1535.44 -1151.09,-2128.95 -498.3,-597.33 -1116.34,-1060.64 -1850.26,-1393.77 -730.05,-333.13 -1560.54,-497.77 -2487.6,-497.77 -934.79,0 -1769.13,164.64 -2499.19,497.77 -733.92,333.13 -1351.97,796.44 -1854.12,1393.77 -498.29,593.51 -884.57,1301.88 -1147.23,2128.95 -262.68,827.08 -394,1730.73 -394,2710.97 0,999.38 119.74,1914.52 359.23,2741.59 243.36,827.08 610.32,1535.45 1100.89,2125.12 486.7,589.68 1100.87,1049.16 1838.66,1374.63 733.92,325.47 1599.18,486.29 2595.76,486.29 988.86,0 1850.25,-160.82 2591.9,-486.29 737.78,-325.47 1351.95,-784.95 1838.66,-1374.63 486.7,-589.67 849.8,-1298.04 1093.15,-2125.12 239.49,-827.07 359.25,-1742.21 359.25,-2741.59zm4843.86 -8247.77l2221.09 0 0 8033.34 8111.75 -8033.34 3101.78 0 -6925.89 6654.88 7119.03 9836.82 -2854.57 0 -5859.78 -8312.86 -2692.32 2569.29 0 5743.57 -2221.09 0 0 -16491.7zm15458.69 0l12144.46 0 0 1929.84 -9923.37 0 0 5092.63 9154.69 0 0 1929.84 -9154.69 0 0 5609.55 10081.74 0 0 1929.84 -12302.83 0 0 -16491.7zm15458.69 0l2221.09 0 0 13340.4 42.49 0 8467.12 -13340.4 2568.73 0 0 16491.7 -2228.81 0 0 -13416.97 -46.35 0 -8455.54 13416.97 -2568.73 0 0 -16491.7z"/>
   <polygon class="fil1" points="17409.9,20262 14443.14,13188.83 57595.9,13157.15 39535.63,3092.1 1515.66,14572.71 39537.94,720.46 64865.77,14858.68 17282.37,14854.04 "/>
   <polygon class="fil1" points="58022.54,17502.38 56474.05,23162.68 56473.66,15992.13 63523.64,16002.57 "/>
  </g>
 </g>
</svg>
